# xmcd CD database file
# Copyright (C) 1993-1998 Ti Kan
#
# Track frame offsets:
#	150
#	15312
#	30709
#	47667
#	71208
#	86599
#	103635
#	114167
#	129209
#	145418
#	154526
#	169838
#	189372
#	209085
#	227104
#	241627
#
# Disc length: 3505 seconds
#
# Revision: 1
# Processed by: cddbd v1.4b41PL1 Copyright (c) Steve Scherf et al.
# Submitted via: NotifyCDPlayer(CDDB) 1.51.3
#
DISCID=cc0daf10
DTITLE=Various Artist - Out Of The Gate Again: Sixteen More From The Grain Belt
DYEAR=1900
DGENRE=
TTITLE0=Junkbox - Need To Explain
TTITLE1=The New Patrons of Husbandry - Too Busy Cryin'
TTITLE2=Kamikaze Cowboy - Your Sweet Face
TTITLE3=The Eldon Boons - Conductor
TTITLE4=Caution Horse - PM
TTITLE5=Cheyenne Social Club - If It Was True
TTITLE6=Three Fried Men - Short Life
TTITLE7=Free Dirt - Last Sip
TTITLE8=Stillwater - Michael's Demons
TTITLE9=Belle Starr - Hook, Line and Sinker
TTITLE10=Wagon - Slack Key Blues
TTITLE11=Grandpa's Ghost - Cheater
TTITLE12=The Highway Matrons - Cold Ice Water
TTITLE13=Little Shadow and the Mighty Long Days - I Won't Fall Down
TTITLE14=Sourpatch - All Things Considered
TTITLE15=One Fell Swoop - Fences
EXTD=
EXTT0=
EXTT1=
EXTT2=
EXTT3=
EXTT4=
EXTT5=
EXTT6=
EXTT7=
EXTT8=
EXTT9=
EXTT10=
EXTT11=
EXTT12=
EXTT13=
EXTT14=
EXTT15=
PLAYORDER=
